M48
; DRILL file {KiCad 9.0.6} date 2025-11-19T01:18:24-0500
; FORMAT={-:-/ absolute / metric / decimal}
; #@! TF.CreationDate,2025-11-19T01:18:24-05:00
; #@! TF.GenerationSoftware,Kicad,Pcbnew,9.0.6
; #@! TF.FileFunction,Plated,1,2,PTH
FMAT,2
METRIC
; #@! TA.AperFunction,Plated,PTH,ViaDrill
T1C0.300
; #@! TA.AperFunction,Plated,PTH,ComponentDrill
T2C1.000
%
G90
G05
T1
X73.0Y-80.5
X75.5Y-89.5
X87.5Y-68.5
X92.0Y-120.0
X97.5Y-101.0
X97.5Y-126.5
X100.5Y-61.0
X100.5Y-63.1
X101.0Y-56.5
X102.0Y-61.0
X102.0Y-63.5
X103.5Y-61.5
X104.0Y-45.5
X105.0Y-60.0
X105.5Y-59.0
X107.5Y-64.975
X111.5Y-137.0
X111.5Y-157.5
X113.4Y-57.0
X114.0Y-62.5
X116.0Y-55.5
X116.0Y-66.5
X117.5Y-77.5
X118.0Y-64.5
X118.5Y-153.5
X121.0Y-69.5
X121.0Y-77.5
X121.0Y-159.0
X129.5Y-69.5
X134.5Y-135.5
X137.0Y-138.0
T2
X101.22Y-87.495
X101.22Y-90.035
X101.22Y-92.575
X101.22Y-95.115
X101.22Y-97.655
X101.22Y-100.195
X101.22Y-102.735
X101.22Y-105.275
X101.22Y-107.815
X101.22Y-125.18
X101.22Y-127.72
X101.22Y-130.26
X101.22Y-132.8
X101.22Y-135.34
X101.22Y-137.88
X114.72Y-69.3
X114.72Y-71.84
X114.72Y-74.38
X114.72Y-76.92
X114.72Y-79.46
X114.72Y-82.0
X114.72Y-84.54
X114.72Y-87.08
X114.72Y-89.62
X114.72Y-92.16
X114.72Y-94.7
X114.72Y-97.24
X114.72Y-99.78
X114.72Y-102.32
X114.72Y-104.86
X114.72Y-107.4
X114.72Y-109.94
X114.72Y-112.48
X114.72Y-115.02
X114.72Y-117.56
X114.72Y-120.1
X114.72Y-122.64
X114.72Y-125.18
X114.72Y-127.72
X114.72Y-130.26
X114.72Y-132.8
X114.72Y-135.34
X114.72Y-137.88
X114.72Y-155.66
X114.72Y-158.2
X114.72Y-160.74
X132.5Y-53.495
X132.5Y-56.035
X132.5Y-58.575
X132.5Y-61.115
X132.5Y-69.3
X132.5Y-71.84
X132.5Y-74.38
X132.5Y-76.92
X132.5Y-79.46
X132.5Y-82.0
X132.5Y-84.54
X132.5Y-87.08
X132.5Y-89.62
X132.5Y-92.16
X132.5Y-94.7
X132.5Y-97.24
X132.5Y-99.78
X132.5Y-102.32
X132.5Y-104.86
X132.5Y-107.4
X132.5Y-109.94
X132.5Y-112.48
X132.5Y-115.02
X132.5Y-117.56
X132.5Y-120.1
X132.5Y-122.64
X132.5Y-125.18
X132.5Y-127.72
X132.5Y-130.26
X132.5Y-132.8
X132.5Y-135.34
X132.5Y-137.88
X132.5Y-153.12
X132.5Y-155.66
X132.5Y-158.2
X132.5Y-160.74
M30
