%TF.GenerationSoftware,KiCad,Pcbnew,9.0.6*%
%TF.CreationDate,2025-11-19T01:17:59-05:00*%
%TF.ProjectId,pcb,7063622e-6b69-4636-9164-5f7063625858,rev?*%
%TF.SameCoordinates,Original*%
%TF.FileFunction,Legend,Top*%
%TF.FilePolarity,Positive*%
%FSLAX46Y46*%
G04 Gerber Fmt 4.6, Leading zero omitted, Abs format (unit mm)*
G04 Created by KiCad (PCBNEW 9.0.6) date 2025-11-19 01:17:59*
%MOMM*%
%LPD*%
G01*
G04 APERTURE LIST*
%ADD10C,0.150000*%
%ADD11C,0.120000*%
G04 APERTURE END LIST*
D10*
X90053333Y-115254580D02*
X90005714Y-115302200D01*
X90005714Y-115302200D02*
X89862857Y-115349819D01*
X89862857Y-115349819D02*
X89767619Y-115349819D01*
X89767619Y-115349819D02*
X89624762Y-115302200D01*
X89624762Y-115302200D02*
X89529524Y-115206961D01*
X89529524Y-115206961D02*
X89481905Y-115111723D01*
X89481905Y-115111723D02*
X89434286Y-114921247D01*
X89434286Y-114921247D02*
X89434286Y-114778390D01*
X89434286Y-114778390D02*
X89481905Y-114587914D01*
X89481905Y-114587914D02*
X89529524Y-114492676D01*
X89529524Y-114492676D02*
X89624762Y-114397438D01*
X89624762Y-114397438D02*
X89767619Y-114349819D01*
X89767619Y-114349819D02*
X89862857Y-114349819D01*
X89862857Y-114349819D02*
X90005714Y-114397438D01*
X90005714Y-114397438D02*
X90053333Y-114445057D01*
X90910476Y-114683152D02*
X90910476Y-115349819D01*
X90672381Y-114302200D02*
X90434286Y-115016485D01*
X90434286Y-115016485D02*
X91053333Y-115016485D01*
X90053333Y-96754580D02*
X90005714Y-96802200D01*
X90005714Y-96802200D02*
X89862857Y-96849819D01*
X89862857Y-96849819D02*
X89767619Y-96849819D01*
X89767619Y-96849819D02*
X89624762Y-96802200D01*
X89624762Y-96802200D02*
X89529524Y-96706961D01*
X89529524Y-96706961D02*
X89481905Y-96611723D01*
X89481905Y-96611723D02*
X89434286Y-96421247D01*
X89434286Y-96421247D02*
X89434286Y-96278390D01*
X89434286Y-96278390D02*
X89481905Y-96087914D01*
X89481905Y-96087914D02*
X89529524Y-95992676D01*
X89529524Y-95992676D02*
X89624762Y-95897438D01*
X89624762Y-95897438D02*
X89767619Y-95849819D01*
X89767619Y-95849819D02*
X89862857Y-95849819D01*
X89862857Y-95849819D02*
X90005714Y-95897438D01*
X90005714Y-95897438D02*
X90053333Y-95945057D01*
X90434286Y-95945057D02*
X90481905Y-95897438D01*
X90481905Y-95897438D02*
X90577143Y-95849819D01*
X90577143Y-95849819D02*
X90815238Y-95849819D01*
X90815238Y-95849819D02*
X90910476Y-95897438D01*
X90910476Y-95897438D02*
X90958095Y-95945057D01*
X90958095Y-95945057D02*
X91005714Y-96040295D01*
X91005714Y-96040295D02*
X91005714Y-96135533D01*
X91005714Y-96135533D02*
X90958095Y-96278390D01*
X90958095Y-96278390D02*
X90386667Y-96849819D01*
X90386667Y-96849819D02*
X91005714Y-96849819D01*
X100283595Y-56079819D02*
X100283595Y-56889342D01*
X100283595Y-56889342D02*
X100331214Y-56984580D01*
X100331214Y-56984580D02*
X100378833Y-57032200D01*
X100378833Y-57032200D02*
X100474071Y-57079819D01*
X100474071Y-57079819D02*
X100664547Y-57079819D01*
X100664547Y-57079819D02*
X100759785Y-57032200D01*
X100759785Y-57032200D02*
X100807404Y-56984580D01*
X100807404Y-56984580D02*
X100855023Y-56889342D01*
X100855023Y-56889342D02*
X100855023Y-56079819D01*
X101855023Y-57079819D02*
X101283595Y-57079819D01*
X101569309Y-57079819D02*
X101569309Y-56079819D01*
X101569309Y-56079819D02*
X101474071Y-56222676D01*
X101474071Y-56222676D02*
X101378833Y-56317914D01*
X101378833Y-56317914D02*
X101283595Y-56365533D01*
X113862319Y-62241666D02*
X113386128Y-62574999D01*
X113862319Y-62813094D02*
X112862319Y-62813094D01*
X112862319Y-62813094D02*
X112862319Y-62432142D01*
X112862319Y-62432142D02*
X112909938Y-62336904D01*
X112909938Y-62336904D02*
X112957557Y-62289285D01*
X112957557Y-62289285D02*
X113052795Y-62241666D01*
X113052795Y-62241666D02*
X113195652Y-62241666D01*
X113195652Y-62241666D02*
X113290890Y-62289285D01*
X113290890Y-62289285D02*
X113338509Y-62336904D01*
X113338509Y-62336904D02*
X113386128Y-62432142D01*
X113386128Y-62432142D02*
X113386128Y-62813094D01*
X112862319Y-61908332D02*
X112862319Y-61289285D01*
X112862319Y-61289285D02*
X113243271Y-61622618D01*
X113243271Y-61622618D02*
X113243271Y-61479761D01*
X113243271Y-61479761D02*
X113290890Y-61384523D01*
X113290890Y-61384523D02*
X113338509Y-61336904D01*
X113338509Y-61336904D02*
X113433747Y-61289285D01*
X113433747Y-61289285D02*
X113671842Y-61289285D01*
X113671842Y-61289285D02*
X113767080Y-61336904D01*
X113767080Y-61336904D02*
X113814700Y-61384523D01*
X113814700Y-61384523D02*
X113862319Y-61479761D01*
X113862319Y-61479761D02*
X113862319Y-61765475D01*
X113862319Y-61765475D02*
X113814700Y-61860713D01*
X113814700Y-61860713D02*
X113767080Y-61908332D01*
X71981905Y-126529819D02*
X71981905Y-125529819D01*
X71981905Y-125529819D02*
X72220000Y-125529819D01*
X72220000Y-125529819D02*
X72362857Y-125577438D01*
X72362857Y-125577438D02*
X72458095Y-125672676D01*
X72458095Y-125672676D02*
X72505714Y-125767914D01*
X72505714Y-125767914D02*
X72553333Y-125958390D01*
X72553333Y-125958390D02*
X72553333Y-126101247D01*
X72553333Y-126101247D02*
X72505714Y-126291723D01*
X72505714Y-126291723D02*
X72458095Y-126386961D01*
X72458095Y-126386961D02*
X72362857Y-126482200D01*
X72362857Y-126482200D02*
X72220000Y-126529819D01*
X72220000Y-126529819D02*
X71981905Y-126529819D01*
X73410476Y-125863152D02*
X73410476Y-126529819D01*
X73172381Y-125482200D02*
X72934286Y-126196485D01*
X72934286Y-126196485D02*
X73553333Y-126196485D01*
X76491428Y-123812704D02*
X76948571Y-123812704D01*
X76719999Y-123812704D02*
X76719999Y-124612704D01*
X76719999Y-124612704D02*
X76796190Y-124498419D01*
X76796190Y-124498419D02*
X76872380Y-124422228D01*
X76872380Y-124422228D02*
X76948571Y-124384133D01*
X119053333Y-61254580D02*
X119005714Y-61302200D01*
X119005714Y-61302200D02*
X118862857Y-61349819D01*
X118862857Y-61349819D02*
X118767619Y-61349819D01*
X118767619Y-61349819D02*
X118624762Y-61302200D01*
X118624762Y-61302200D02*
X118529524Y-61206961D01*
X118529524Y-61206961D02*
X118481905Y-61111723D01*
X118481905Y-61111723D02*
X118434286Y-60921247D01*
X118434286Y-60921247D02*
X118434286Y-60778390D01*
X118434286Y-60778390D02*
X118481905Y-60587914D01*
X118481905Y-60587914D02*
X118529524Y-60492676D01*
X118529524Y-60492676D02*
X118624762Y-60397438D01*
X118624762Y-60397438D02*
X118767619Y-60349819D01*
X118767619Y-60349819D02*
X118862857Y-60349819D01*
X118862857Y-60349819D02*
X119005714Y-60397438D01*
X119005714Y-60397438D02*
X119053333Y-60445057D01*
X119624762Y-60778390D02*
X119529524Y-60730771D01*
X119529524Y-60730771D02*
X119481905Y-60683152D01*
X119481905Y-60683152D02*
X119434286Y-60587914D01*
X119434286Y-60587914D02*
X119434286Y-60540295D01*
X119434286Y-60540295D02*
X119481905Y-60445057D01*
X119481905Y-60445057D02*
X119529524Y-60397438D01*
X119529524Y-60397438D02*
X119624762Y-60349819D01*
X119624762Y-60349819D02*
X119815238Y-60349819D01*
X119815238Y-60349819D02*
X119910476Y-60397438D01*
X119910476Y-60397438D02*
X119958095Y-60445057D01*
X119958095Y-60445057D02*
X120005714Y-60540295D01*
X120005714Y-60540295D02*
X120005714Y-60587914D01*
X120005714Y-60587914D02*
X119958095Y-60683152D01*
X119958095Y-60683152D02*
X119910476Y-60730771D01*
X119910476Y-60730771D02*
X119815238Y-60778390D01*
X119815238Y-60778390D02*
X119624762Y-60778390D01*
X119624762Y-60778390D02*
X119529524Y-60826009D01*
X119529524Y-60826009D02*
X119481905Y-60873628D01*
X119481905Y-60873628D02*
X119434286Y-60968866D01*
X119434286Y-60968866D02*
X119434286Y-61159342D01*
X119434286Y-61159342D02*
X119481905Y-61254580D01*
X119481905Y-61254580D02*
X119529524Y-61302200D01*
X119529524Y-61302200D02*
X119624762Y-61349819D01*
X119624762Y-61349819D02*
X119815238Y-61349819D01*
X119815238Y-61349819D02*
X119910476Y-61302200D01*
X119910476Y-61302200D02*
X119958095Y-61254580D01*
X119958095Y-61254580D02*
X120005714Y-61159342D01*
X120005714Y-61159342D02*
X120005714Y-60968866D01*
X120005714Y-60968866D02*
X119958095Y-60873628D01*
X119958095Y-60873628D02*
X119910476Y-60826009D01*
X119910476Y-60826009D02*
X119815238Y-60778390D01*
X119015833Y-50254580D02*
X118968214Y-50302200D01*
X118968214Y-50302200D02*
X118825357Y-50349819D01*
X118825357Y-50349819D02*
X118730119Y-50349819D01*
X118730119Y-50349819D02*
X118587262Y-50302200D01*
X118587262Y-50302200D02*
X118492024Y-50206961D01*
X118492024Y-50206961D02*
X118444405Y-50111723D01*
X118444405Y-50111723D02*
X118396786Y-49921247D01*
X118396786Y-49921247D02*
X118396786Y-49778390D01*
X118396786Y-49778390D02*
X118444405Y-49587914D01*
X118444405Y-49587914D02*
X118492024Y-49492676D01*
X118492024Y-49492676D02*
X118587262Y-49397438D01*
X118587262Y-49397438D02*
X118730119Y-49349819D01*
X118730119Y-49349819D02*
X118825357Y-49349819D01*
X118825357Y-49349819D02*
X118968214Y-49397438D01*
X118968214Y-49397438D02*
X119015833Y-49445057D01*
X119349167Y-49349819D02*
X120015833Y-49349819D01*
X120015833Y-49349819D02*
X119587262Y-50349819D01*
X132166666Y-63339819D02*
X132166666Y-64054104D01*
X132166666Y-64054104D02*
X132119047Y-64196961D01*
X132119047Y-64196961D02*
X132023809Y-64292200D01*
X132023809Y-64292200D02*
X131880952Y-64339819D01*
X131880952Y-64339819D02*
X131785714Y-64339819D01*
X132547619Y-63339819D02*
X133214285Y-63339819D01*
X133214285Y-63339819D02*
X132785714Y-64339819D01*
X132166666Y-65984819D02*
X132166666Y-66699104D01*
X132166666Y-66699104D02*
X132119047Y-66841961D01*
X132119047Y-66841961D02*
X132023809Y-66937200D01*
X132023809Y-66937200D02*
X131880952Y-66984819D01*
X131880952Y-66984819D02*
X131785714Y-66984819D01*
X132595238Y-66080057D02*
X132642857Y-66032438D01*
X132642857Y-66032438D02*
X132738095Y-65984819D01*
X132738095Y-65984819D02*
X132976190Y-65984819D01*
X132976190Y-65984819D02*
X133071428Y-66032438D01*
X133071428Y-66032438D02*
X133119047Y-66080057D01*
X133119047Y-66080057D02*
X133166666Y-66175295D01*
X133166666Y-66175295D02*
X133166666Y-66270533D01*
X133166666Y-66270533D02*
X133119047Y-66413390D01*
X133119047Y-66413390D02*
X132547619Y-66984819D01*
X132547619Y-66984819D02*
X133166666Y-66984819D01*
X100940833Y-49579819D02*
X100464643Y-49579819D01*
X100464643Y-49579819D02*
X100464643Y-48579819D01*
X101797976Y-49579819D02*
X101226548Y-49579819D01*
X101512262Y-49579819D02*
X101512262Y-48579819D01*
X101512262Y-48579819D02*
X101417024Y-48722676D01*
X101417024Y-48722676D02*
X101321786Y-48817914D01*
X101321786Y-48817914D02*
X101226548Y-48865533D01*
X101053333Y-64254580D02*
X101005714Y-64302200D01*
X101005714Y-64302200D02*
X100862857Y-64349819D01*
X100862857Y-64349819D02*
X100767619Y-64349819D01*
X100767619Y-64349819D02*
X100624762Y-64302200D01*
X100624762Y-64302200D02*
X100529524Y-64206961D01*
X100529524Y-64206961D02*
X100481905Y-64111723D01*
X100481905Y-64111723D02*
X100434286Y-63921247D01*
X100434286Y-63921247D02*
X100434286Y-63778390D01*
X100434286Y-63778390D02*
X100481905Y-63587914D01*
X100481905Y-63587914D02*
X100529524Y-63492676D01*
X100529524Y-63492676D02*
X100624762Y-63397438D01*
X100624762Y-63397438D02*
X100767619Y-63349819D01*
X100767619Y-63349819D02*
X100862857Y-63349819D01*
X100862857Y-63349819D02*
X101005714Y-63397438D01*
X101005714Y-63397438D02*
X101053333Y-63445057D01*
X102005714Y-64349819D02*
X101434286Y-64349819D01*
X101720000Y-64349819D02*
X101720000Y-63349819D01*
X101720000Y-63349819D02*
X101624762Y-63492676D01*
X101624762Y-63492676D02*
X101529524Y-63587914D01*
X101529524Y-63587914D02*
X101434286Y-63635533D01*
X71981905Y-107029819D02*
X71981905Y-106029819D01*
X71981905Y-106029819D02*
X72220000Y-106029819D01*
X72220000Y-106029819D02*
X72362857Y-106077438D01*
X72362857Y-106077438D02*
X72458095Y-106172676D01*
X72458095Y-106172676D02*
X72505714Y-106267914D01*
X72505714Y-106267914D02*
X72553333Y-106458390D01*
X72553333Y-106458390D02*
X72553333Y-106601247D01*
X72553333Y-106601247D02*
X72505714Y-106791723D01*
X72505714Y-106791723D02*
X72458095Y-106886961D01*
X72458095Y-106886961D02*
X72362857Y-106982200D01*
X72362857Y-106982200D02*
X72220000Y-107029819D01*
X72220000Y-107029819D02*
X71981905Y-107029819D01*
X72886667Y-106029819D02*
X73505714Y-106029819D01*
X73505714Y-106029819D02*
X73172381Y-106410771D01*
X73172381Y-106410771D02*
X73315238Y-106410771D01*
X73315238Y-106410771D02*
X73410476Y-106458390D01*
X73410476Y-106458390D02*
X73458095Y-106506009D01*
X73458095Y-106506009D02*
X73505714Y-106601247D01*
X73505714Y-106601247D02*
X73505714Y-106839342D01*
X73505714Y-106839342D02*
X73458095Y-106934580D01*
X73458095Y-106934580D02*
X73410476Y-106982200D01*
X73410476Y-106982200D02*
X73315238Y-107029819D01*
X73315238Y-107029819D02*
X73029524Y-107029819D01*
X73029524Y-107029819D02*
X72934286Y-106982200D01*
X72934286Y-106982200D02*
X72886667Y-106934580D01*
X68948571Y-108837295D02*
X68491428Y-108837295D01*
X68720000Y-108837295D02*
X68720000Y-108037295D01*
X68720000Y-108037295D02*
X68643809Y-108151580D01*
X68643809Y-108151580D02*
X68567619Y-108227771D01*
X68567619Y-108227771D02*
X68491428Y-108265866D01*
X114386666Y-152344819D02*
X114386666Y-153059104D01*
X114386666Y-153059104D02*
X114339047Y-153201961D01*
X114339047Y-153201961D02*
X114243809Y-153297200D01*
X114243809Y-153297200D02*
X114100952Y-153344819D01*
X114100952Y-153344819D02*
X114005714Y-153344819D01*
X114767619Y-152344819D02*
X115386666Y-152344819D01*
X115386666Y-152344819D02*
X115053333Y-152725771D01*
X115053333Y-152725771D02*
X115196190Y-152725771D01*
X115196190Y-152725771D02*
X115291428Y-152773390D01*
X115291428Y-152773390D02*
X115339047Y-152821009D01*
X115339047Y-152821009D02*
X115386666Y-152916247D01*
X115386666Y-152916247D02*
X115386666Y-153154342D01*
X115386666Y-153154342D02*
X115339047Y-153249580D01*
X115339047Y-153249580D02*
X115291428Y-153297200D01*
X115291428Y-153297200D02*
X115196190Y-153344819D01*
X115196190Y-153344819D02*
X114910476Y-153344819D01*
X114910476Y-153344819D02*
X114815238Y-153297200D01*
X114815238Y-153297200D02*
X114767619Y-153249580D01*
X119053333Y-57754580D02*
X119005714Y-57802200D01*
X119005714Y-57802200D02*
X118862857Y-57849819D01*
X118862857Y-57849819D02*
X118767619Y-57849819D01*
X118767619Y-57849819D02*
X118624762Y-57802200D01*
X118624762Y-57802200D02*
X118529524Y-57706961D01*
X118529524Y-57706961D02*
X118481905Y-57611723D01*
X118481905Y-57611723D02*
X118434286Y-57421247D01*
X118434286Y-57421247D02*
X118434286Y-57278390D01*
X118434286Y-57278390D02*
X118481905Y-57087914D01*
X118481905Y-57087914D02*
X118529524Y-56992676D01*
X118529524Y-56992676D02*
X118624762Y-56897438D01*
X118624762Y-56897438D02*
X118767619Y-56849819D01*
X118767619Y-56849819D02*
X118862857Y-56849819D01*
X118862857Y-56849819D02*
X119005714Y-56897438D01*
X119005714Y-56897438D02*
X119053333Y-56945057D01*
X119910476Y-56849819D02*
X119720000Y-56849819D01*
X119720000Y-56849819D02*
X119624762Y-56897438D01*
X119624762Y-56897438D02*
X119577143Y-56945057D01*
X119577143Y-56945057D02*
X119481905Y-57087914D01*
X119481905Y-57087914D02*
X119434286Y-57278390D01*
X119434286Y-57278390D02*
X119434286Y-57659342D01*
X119434286Y-57659342D02*
X119481905Y-57754580D01*
X119481905Y-57754580D02*
X119529524Y-57802200D01*
X119529524Y-57802200D02*
X119624762Y-57849819D01*
X119624762Y-57849819D02*
X119815238Y-57849819D01*
X119815238Y-57849819D02*
X119910476Y-57802200D01*
X119910476Y-57802200D02*
X119958095Y-57754580D01*
X119958095Y-57754580D02*
X120005714Y-57659342D01*
X120005714Y-57659342D02*
X120005714Y-57421247D01*
X120005714Y-57421247D02*
X119958095Y-57326009D01*
X119958095Y-57326009D02*
X119910476Y-57278390D01*
X119910476Y-57278390D02*
X119815238Y-57230771D01*
X119815238Y-57230771D02*
X119624762Y-57230771D01*
X119624762Y-57230771D02*
X119529524Y-57278390D01*
X119529524Y-57278390D02*
X119481905Y-57326009D01*
X119481905Y-57326009D02*
X119434286Y-57421247D01*
X107024819Y-56241666D02*
X106548628Y-56574999D01*
X107024819Y-56813094D02*
X106024819Y-56813094D01*
X106024819Y-56813094D02*
X106024819Y-56432142D01*
X106024819Y-56432142D02*
X106072438Y-56336904D01*
X106072438Y-56336904D02*
X106120057Y-56289285D01*
X106120057Y-56289285D02*
X106215295Y-56241666D01*
X106215295Y-56241666D02*
X106358152Y-56241666D01*
X106358152Y-56241666D02*
X106453390Y-56289285D01*
X106453390Y-56289285D02*
X106501009Y-56336904D01*
X106501009Y-56336904D02*
X106548628Y-56432142D01*
X106548628Y-56432142D02*
X106548628Y-56813094D01*
X106120057Y-55860713D02*
X106072438Y-55813094D01*
X106072438Y-55813094D02*
X106024819Y-55717856D01*
X106024819Y-55717856D02*
X106024819Y-55479761D01*
X106024819Y-55479761D02*
X106072438Y-55384523D01*
X106072438Y-55384523D02*
X106120057Y-55336904D01*
X106120057Y-55336904D02*
X106215295Y-55289285D01*
X106215295Y-55289285D02*
X106310533Y-55289285D01*
X106310533Y-55289285D02*
X106453390Y-55336904D01*
X106453390Y-55336904D02*
X107024819Y-55908332D01*
X107024819Y-55908332D02*
X107024819Y-55289285D01*
X71981905Y-94529819D02*
X71981905Y-93529819D01*
X71981905Y-93529819D02*
X72220000Y-93529819D01*
X72220000Y-93529819D02*
X72362857Y-93577438D01*
X72362857Y-93577438D02*
X72458095Y-93672676D01*
X72458095Y-93672676D02*
X72505714Y-93767914D01*
X72505714Y-93767914D02*
X72553333Y-93958390D01*
X72553333Y-93958390D02*
X72553333Y-94101247D01*
X72553333Y-94101247D02*
X72505714Y-94291723D01*
X72505714Y-94291723D02*
X72458095Y-94386961D01*
X72458095Y-94386961D02*
X72362857Y-94482200D01*
X72362857Y-94482200D02*
X72220000Y-94529819D01*
X72220000Y-94529819D02*
X71981905Y-94529819D01*
X72934286Y-93625057D02*
X72981905Y-93577438D01*
X72981905Y-93577438D02*
X73077143Y-93529819D01*
X73077143Y-93529819D02*
X73315238Y-93529819D01*
X73315238Y-93529819D02*
X73410476Y-93577438D01*
X73410476Y-93577438D02*
X73458095Y-93625057D01*
X73458095Y-93625057D02*
X73505714Y-93720295D01*
X73505714Y-93720295D02*
X73505714Y-93815533D01*
X73505714Y-93815533D02*
X73458095Y-93958390D01*
X73458095Y-93958390D02*
X72886667Y-94529819D01*
X72886667Y-94529819D02*
X73505714Y-94529819D01*
X68948571Y-96337295D02*
X68491428Y-96337295D01*
X68720000Y-96337295D02*
X68720000Y-95537295D01*
X68720000Y-95537295D02*
X68643809Y-95651580D01*
X68643809Y-95651580D02*
X68567619Y-95727771D01*
X68567619Y-95727771D02*
X68491428Y-95765866D01*
X90053333Y-102754580D02*
X90005714Y-102802200D01*
X90005714Y-102802200D02*
X89862857Y-102849819D01*
X89862857Y-102849819D02*
X89767619Y-102849819D01*
X89767619Y-102849819D02*
X89624762Y-102802200D01*
X89624762Y-102802200D02*
X89529524Y-102706961D01*
X89529524Y-102706961D02*
X89481905Y-102611723D01*
X89481905Y-102611723D02*
X89434286Y-102421247D01*
X89434286Y-102421247D02*
X89434286Y-102278390D01*
X89434286Y-102278390D02*
X89481905Y-102087914D01*
X89481905Y-102087914D02*
X89529524Y-101992676D01*
X89529524Y-101992676D02*
X89624762Y-101897438D01*
X89624762Y-101897438D02*
X89767619Y-101849819D01*
X89767619Y-101849819D02*
X89862857Y-101849819D01*
X89862857Y-101849819D02*
X90005714Y-101897438D01*
X90005714Y-101897438D02*
X90053333Y-101945057D01*
X90386667Y-101849819D02*
X91005714Y-101849819D01*
X91005714Y-101849819D02*
X90672381Y-102230771D01*
X90672381Y-102230771D02*
X90815238Y-102230771D01*
X90815238Y-102230771D02*
X90910476Y-102278390D01*
X90910476Y-102278390D02*
X90958095Y-102326009D01*
X90958095Y-102326009D02*
X91005714Y-102421247D01*
X91005714Y-102421247D02*
X91005714Y-102659342D01*
X91005714Y-102659342D02*
X90958095Y-102754580D01*
X90958095Y-102754580D02*
X90910476Y-102802200D01*
X90910476Y-102802200D02*
X90815238Y-102849819D01*
X90815238Y-102849819D02*
X90529524Y-102849819D01*
X90529524Y-102849819D02*
X90434286Y-102802200D01*
X90434286Y-102802200D02*
X90386667Y-102754580D01*
X107024819Y-62241666D02*
X106548628Y-62574999D01*
X107024819Y-62813094D02*
X106024819Y-62813094D01*
X106024819Y-62813094D02*
X106024819Y-62432142D01*
X106024819Y-62432142D02*
X106072438Y-62336904D01*
X106072438Y-62336904D02*
X106120057Y-62289285D01*
X106120057Y-62289285D02*
X106215295Y-62241666D01*
X106215295Y-62241666D02*
X106358152Y-62241666D01*
X106358152Y-62241666D02*
X106453390Y-62289285D01*
X106453390Y-62289285D02*
X106501009Y-62336904D01*
X106501009Y-62336904D02*
X106548628Y-62432142D01*
X106548628Y-62432142D02*
X106548628Y-62813094D01*
X106024819Y-61336904D02*
X106024819Y-61813094D01*
X106024819Y-61813094D02*
X106501009Y-61860713D01*
X106501009Y-61860713D02*
X106453390Y-61813094D01*
X106453390Y-61813094D02*
X106405771Y-61717856D01*
X106405771Y-61717856D02*
X106405771Y-61479761D01*
X106405771Y-61479761D02*
X106453390Y-61384523D01*
X106453390Y-61384523D02*
X106501009Y-61336904D01*
X106501009Y-61336904D02*
X106596247Y-61289285D01*
X106596247Y-61289285D02*
X106834342Y-61289285D01*
X106834342Y-61289285D02*
X106929580Y-61336904D01*
X106929580Y-61336904D02*
X106977200Y-61384523D01*
X106977200Y-61384523D02*
X107024819Y-61479761D01*
X107024819Y-61479761D02*
X107024819Y-61717856D01*
X107024819Y-61717856D02*
X106977200Y-61813094D01*
X106977200Y-61813094D02*
X106929580Y-61860713D01*
X119053333Y-54254580D02*
X119005714Y-54302200D01*
X119005714Y-54302200D02*
X118862857Y-54349819D01*
X118862857Y-54349819D02*
X118767619Y-54349819D01*
X118767619Y-54349819D02*
X118624762Y-54302200D01*
X118624762Y-54302200D02*
X118529524Y-54206961D01*
X118529524Y-54206961D02*
X118481905Y-54111723D01*
X118481905Y-54111723D02*
X118434286Y-53921247D01*
X118434286Y-53921247D02*
X118434286Y-53778390D01*
X118434286Y-53778390D02*
X118481905Y-53587914D01*
X118481905Y-53587914D02*
X118529524Y-53492676D01*
X118529524Y-53492676D02*
X118624762Y-53397438D01*
X118624762Y-53397438D02*
X118767619Y-53349819D01*
X118767619Y-53349819D02*
X118862857Y-53349819D01*
X118862857Y-53349819D02*
X119005714Y-53397438D01*
X119005714Y-53397438D02*
X119053333Y-53445057D01*
X119958095Y-53349819D02*
X119481905Y-53349819D01*
X119481905Y-53349819D02*
X119434286Y-53826009D01*
X119434286Y-53826009D02*
X119481905Y-53778390D01*
X119481905Y-53778390D02*
X119577143Y-53730771D01*
X119577143Y-53730771D02*
X119815238Y-53730771D01*
X119815238Y-53730771D02*
X119910476Y-53778390D01*
X119910476Y-53778390D02*
X119958095Y-53826009D01*
X119958095Y-53826009D02*
X120005714Y-53921247D01*
X120005714Y-53921247D02*
X120005714Y-54159342D01*
X120005714Y-54159342D02*
X119958095Y-54254580D01*
X119958095Y-54254580D02*
X119910476Y-54302200D01*
X119910476Y-54302200D02*
X119815238Y-54349819D01*
X119815238Y-54349819D02*
X119577143Y-54349819D01*
X119577143Y-54349819D02*
X119481905Y-54302200D01*
X119481905Y-54302200D02*
X119434286Y-54254580D01*
X114386666Y-65984819D02*
X114386666Y-66699104D01*
X114386666Y-66699104D02*
X114339047Y-66841961D01*
X114339047Y-66841961D02*
X114243809Y-66937200D01*
X114243809Y-66937200D02*
X114100952Y-66984819D01*
X114100952Y-66984819D02*
X114005714Y-66984819D01*
X115386666Y-66984819D02*
X114815238Y-66984819D01*
X115100952Y-66984819D02*
X115100952Y-65984819D01*
X115100952Y-65984819D02*
X115005714Y-66127676D01*
X115005714Y-66127676D02*
X114910476Y-66222914D01*
X114910476Y-66222914D02*
X114815238Y-66270533D01*
X90090833Y-88679819D02*
X89757500Y-88203628D01*
X89519405Y-88679819D02*
X89519405Y-87679819D01*
X89519405Y-87679819D02*
X89900357Y-87679819D01*
X89900357Y-87679819D02*
X89995595Y-87727438D01*
X89995595Y-87727438D02*
X90043214Y-87775057D01*
X90043214Y-87775057D02*
X90090833Y-87870295D01*
X90090833Y-87870295D02*
X90090833Y-88013152D01*
X90090833Y-88013152D02*
X90043214Y-88108390D01*
X90043214Y-88108390D02*
X89995595Y-88156009D01*
X89995595Y-88156009D02*
X89900357Y-88203628D01*
X89900357Y-88203628D02*
X89519405Y-88203628D01*
X91043214Y-88679819D02*
X90471786Y-88679819D01*
X90757500Y-88679819D02*
X90757500Y-87679819D01*
X90757500Y-87679819D02*
X90662262Y-87822676D01*
X90662262Y-87822676D02*
X90567024Y-87917914D01*
X90567024Y-87917914D02*
X90471786Y-87965533D01*
X100886666Y-121864819D02*
X100886666Y-122579104D01*
X100886666Y-122579104D02*
X100839047Y-122721961D01*
X100839047Y-122721961D02*
X100743809Y-122817200D01*
X100743809Y-122817200D02*
X100600952Y-122864819D01*
X100600952Y-122864819D02*
X100505714Y-122864819D01*
X101839047Y-121864819D02*
X101362857Y-121864819D01*
X101362857Y-121864819D02*
X101315238Y-122341009D01*
X101315238Y-122341009D02*
X101362857Y-122293390D01*
X101362857Y-122293390D02*
X101458095Y-122245771D01*
X101458095Y-122245771D02*
X101696190Y-122245771D01*
X101696190Y-122245771D02*
X101791428Y-122293390D01*
X101791428Y-122293390D02*
X101839047Y-122341009D01*
X101839047Y-122341009D02*
X101886666Y-122436247D01*
X101886666Y-122436247D02*
X101886666Y-122674342D01*
X101886666Y-122674342D02*
X101839047Y-122769580D01*
X101839047Y-122769580D02*
X101791428Y-122817200D01*
X101791428Y-122817200D02*
X101696190Y-122864819D01*
X101696190Y-122864819D02*
X101458095Y-122864819D01*
X101458095Y-122864819D02*
X101362857Y-122817200D01*
X101362857Y-122817200D02*
X101315238Y-122769580D01*
X70017200Y-73408332D02*
X70064819Y-73265475D01*
X70064819Y-73265475D02*
X70064819Y-73027380D01*
X70064819Y-73027380D02*
X70017200Y-72932142D01*
X70017200Y-72932142D02*
X69969580Y-72884523D01*
X69969580Y-72884523D02*
X69874342Y-72836904D01*
X69874342Y-72836904D02*
X69779104Y-72836904D01*
X69779104Y-72836904D02*
X69683866Y-72884523D01*
X69683866Y-72884523D02*
X69636247Y-72932142D01*
X69636247Y-72932142D02*
X69588628Y-73027380D01*
X69588628Y-73027380D02*
X69541009Y-73217856D01*
X69541009Y-73217856D02*
X69493390Y-73313094D01*
X69493390Y-73313094D02*
X69445771Y-73360713D01*
X69445771Y-73360713D02*
X69350533Y-73408332D01*
X69350533Y-73408332D02*
X69255295Y-73408332D01*
X69255295Y-73408332D02*
X69160057Y-73360713D01*
X69160057Y-73360713D02*
X69112438Y-73313094D01*
X69112438Y-73313094D02*
X69064819Y-73217856D01*
X69064819Y-73217856D02*
X69064819Y-72979761D01*
X69064819Y-72979761D02*
X69112438Y-72836904D01*
X69064819Y-72503570D02*
X70064819Y-72265475D01*
X70064819Y-72265475D02*
X69350533Y-72074999D01*
X69350533Y-72074999D02*
X70064819Y-71884523D01*
X70064819Y-71884523D02*
X69064819Y-71646428D01*
X70064819Y-70741666D02*
X70064819Y-71313094D01*
X70064819Y-71027380D02*
X69064819Y-71027380D01*
X69064819Y-71027380D02*
X69207676Y-71122618D01*
X69207676Y-71122618D02*
X69302914Y-71217856D01*
X69302914Y-71217856D02*
X69350533Y-71313094D01*
X71981905Y-82029819D02*
X71981905Y-81029819D01*
X71981905Y-81029819D02*
X72220000Y-81029819D01*
X72220000Y-81029819D02*
X72362857Y-81077438D01*
X72362857Y-81077438D02*
X72458095Y-81172676D01*
X72458095Y-81172676D02*
X72505714Y-81267914D01*
X72505714Y-81267914D02*
X72553333Y-81458390D01*
X72553333Y-81458390D02*
X72553333Y-81601247D01*
X72553333Y-81601247D02*
X72505714Y-81791723D01*
X72505714Y-81791723D02*
X72458095Y-81886961D01*
X72458095Y-81886961D02*
X72362857Y-81982200D01*
X72362857Y-81982200D02*
X72220000Y-82029819D01*
X72220000Y-82029819D02*
X71981905Y-82029819D01*
X73505714Y-82029819D02*
X72934286Y-82029819D01*
X73220000Y-82029819D02*
X73220000Y-81029819D01*
X73220000Y-81029819D02*
X73124762Y-81172676D01*
X73124762Y-81172676D02*
X73029524Y-81267914D01*
X73029524Y-81267914D02*
X72934286Y-81315533D01*
X68948571Y-83837295D02*
X68491428Y-83837295D01*
X68720000Y-83837295D02*
X68720000Y-83037295D01*
X68720000Y-83037295D02*
X68643809Y-83151580D01*
X68643809Y-83151580D02*
X68567619Y-83227771D01*
X68567619Y-83227771D02*
X68491428Y-83265866D01*
X100886666Y-84179819D02*
X100886666Y-84894104D01*
X100886666Y-84894104D02*
X100839047Y-85036961D01*
X100839047Y-85036961D02*
X100743809Y-85132200D01*
X100743809Y-85132200D02*
X100600952Y-85179819D01*
X100600952Y-85179819D02*
X100505714Y-85179819D01*
X101791428Y-84179819D02*
X101600952Y-84179819D01*
X101600952Y-84179819D02*
X101505714Y-84227438D01*
X101505714Y-84227438D02*
X101458095Y-84275057D01*
X101458095Y-84275057D02*
X101362857Y-84417914D01*
X101362857Y-84417914D02*
X101315238Y-84608390D01*
X101315238Y-84608390D02*
X101315238Y-84989342D01*
X101315238Y-84989342D02*
X101362857Y-85084580D01*
X101362857Y-85084580D02*
X101410476Y-85132200D01*
X101410476Y-85132200D02*
X101505714Y-85179819D01*
X101505714Y-85179819D02*
X101696190Y-85179819D01*
X101696190Y-85179819D02*
X101791428Y-85132200D01*
X101791428Y-85132200D02*
X101839047Y-85084580D01*
X101839047Y-85084580D02*
X101886666Y-84989342D01*
X101886666Y-84989342D02*
X101886666Y-84751247D01*
X101886666Y-84751247D02*
X101839047Y-84656009D01*
X101839047Y-84656009D02*
X101791428Y-84608390D01*
X101791428Y-84608390D02*
X101696190Y-84560771D01*
X101696190Y-84560771D02*
X101505714Y-84560771D01*
X101505714Y-84560771D02*
X101410476Y-84608390D01*
X101410476Y-84608390D02*
X101362857Y-84656009D01*
X101362857Y-84656009D02*
X101315238Y-84751247D01*
X110562319Y-56241666D02*
X110086128Y-56574999D01*
X110562319Y-56813094D02*
X109562319Y-56813094D01*
X109562319Y-56813094D02*
X109562319Y-56432142D01*
X109562319Y-56432142D02*
X109609938Y-56336904D01*
X109609938Y-56336904D02*
X109657557Y-56289285D01*
X109657557Y-56289285D02*
X109752795Y-56241666D01*
X109752795Y-56241666D02*
X109895652Y-56241666D01*
X109895652Y-56241666D02*
X109990890Y-56289285D01*
X109990890Y-56289285D02*
X110038509Y-56336904D01*
X110038509Y-56336904D02*
X110086128Y-56432142D01*
X110086128Y-56432142D02*
X110086128Y-56813094D01*
X109895652Y-55384523D02*
X110562319Y-55384523D01*
X109514700Y-55622618D02*
X110228985Y-55860713D01*
X110228985Y-55860713D02*
X110228985Y-55241666D01*
X132166666Y-149804819D02*
X132166666Y-150519104D01*
X132166666Y-150519104D02*
X132119047Y-150661961D01*
X132119047Y-150661961D02*
X132023809Y-150757200D01*
X132023809Y-150757200D02*
X131880952Y-150804819D01*
X131880952Y-150804819D02*
X131785714Y-150804819D01*
X133071428Y-150138152D02*
X133071428Y-150804819D01*
X132833333Y-149757200D02*
X132595238Y-150471485D01*
X132595238Y-150471485D02*
X133214285Y-150471485D01*
D11*
%TO.C,C4*%
X89958748Y-115840000D02*
X90481252Y-115840000D01*
X89958748Y-117310000D02*
X90481252Y-117310000D01*
%TO.C,C2*%
X89958748Y-97340000D02*
X90481252Y-97340000D01*
X89958748Y-98810000D02*
X90481252Y-98810000D01*
%TO.C,U1*%
X100045500Y-57515000D02*
X102045500Y-57515000D01*
X102045500Y-59735000D02*
X100045500Y-59735000D01*
X99645500Y-57785000D02*
X99365500Y-57785000D01*
X99645500Y-57505000D01*
X99645500Y-57785000D01*
G36*
X99645500Y-57785000D02*
G01*
X99365500Y-57785000D01*
X99645500Y-57505000D01*
X99645500Y-57785000D01*
G37*
%TO.C,R3*%
X111022500Y-61847936D02*
X111022500Y-62302064D01*
X112492500Y-61847936D02*
X112492500Y-62302064D01*
%TO.C,D4*%
X69220000Y-120275000D02*
X69220000Y-125325000D01*
X69670000Y-119825000D02*
X69220000Y-120275000D01*
X70020000Y-121675000D02*
X70020000Y-123475000D01*
X75420000Y-121675000D02*
X75420000Y-123475000D01*
X76220000Y-119825000D02*
X69670000Y-119825000D01*
X76220000Y-125325000D02*
X69220000Y-125325000D01*
X76220000Y-125325000D02*
X76220000Y-119825000D01*
%TO.C,C8*%
X118958748Y-61840000D02*
X119481252Y-61840000D01*
X118958748Y-63310000D02*
X119481252Y-63310000D01*
%TO.C,C7*%
X118921248Y-50840000D02*
X119443752Y-50840000D01*
X118921248Y-52310000D02*
X119443752Y-52310000D01*
%TO.C,J7*%
X131170000Y-59845000D02*
X131170000Y-52165000D01*
X131170000Y-62445000D02*
X131170000Y-61115000D01*
X132500000Y-62445000D02*
X131170000Y-62445000D01*
X133830000Y-52165000D02*
X131170000Y-52165000D01*
X133830000Y-59845000D02*
X131170000Y-59845000D01*
X133830000Y-59845000D02*
X133830000Y-52165000D01*
%TO.C,J2*%
X131170000Y-70570000D02*
X131170000Y-139210000D01*
X131170000Y-70570000D02*
X133830000Y-70570000D01*
X131170000Y-139210000D02*
X133830000Y-139210000D01*
X132500000Y-67970000D02*
X133830000Y-67970000D01*
X133830000Y-67970000D02*
X133830000Y-69300000D01*
X133830000Y-70570000D02*
X133830000Y-139210000D01*
%TO.C,L1*%
X101517742Y-47015000D02*
X100697258Y-47015000D01*
X101517742Y-48135000D02*
X100697258Y-48135000D01*
%TO.C,C1*%
X100958748Y-64840000D02*
X101481252Y-64840000D01*
X100958748Y-66310000D02*
X101481252Y-66310000D01*
%TO.C,D3*%
X69220000Y-107325000D02*
X69220000Y-112825000D01*
X69220000Y-107325000D02*
X76220000Y-107325000D01*
X69220000Y-112825000D02*
X75770000Y-112825000D01*
X70020000Y-110975000D02*
X70020000Y-109175000D01*
X75420000Y-110975000D02*
X75420000Y-109175000D01*
X75770000Y-112825000D02*
X76220000Y-112375000D01*
X76220000Y-112375000D02*
X76220000Y-107325000D01*
%TO.C,J3*%
X113390000Y-156930000D02*
X113390000Y-162070000D01*
X113390000Y-156930000D02*
X116050000Y-156930000D01*
X113390000Y-162070000D02*
X116050000Y-162070000D01*
X114720000Y-154330000D02*
X116050000Y-154330000D01*
X116050000Y-154330000D02*
X116050000Y-155660000D01*
X116050000Y-156930000D02*
X116050000Y-162070000D01*
%TO.C,C6*%
X118958748Y-58340000D02*
X119481252Y-58340000D01*
X118958748Y-59810000D02*
X119481252Y-59810000D01*
%TO.C,R2*%
X107485000Y-56302064D02*
X107485000Y-55847936D01*
X108955000Y-56302064D02*
X108955000Y-55847936D01*
%TO.C,D2*%
X69220000Y-94825000D02*
X69220000Y-100325000D01*
X69220000Y-94825000D02*
X76220000Y-94825000D01*
X69220000Y-100325000D02*
X75770000Y-100325000D01*
X70020000Y-98475000D02*
X70020000Y-96675000D01*
X75420000Y-98475000D02*
X75420000Y-96675000D01*
X75770000Y-100325000D02*
X76220000Y-99875000D01*
X76220000Y-99875000D02*
X76220000Y-94825000D01*
%TO.C,C3*%
X89958748Y-103340000D02*
X90481252Y-103340000D01*
X89958748Y-104810000D02*
X90481252Y-104810000D01*
%TO.C,R5*%
X107485000Y-62302064D02*
X107485000Y-61847936D01*
X108955000Y-62302064D02*
X108955000Y-61847936D01*
%TO.C,C5*%
X118958748Y-54840000D02*
X119481252Y-54840000D01*
X118958748Y-56310000D02*
X119481252Y-56310000D01*
%TO.C,J1*%
X113390000Y-70570000D02*
X113390000Y-139210000D01*
X113390000Y-70570000D02*
X116050000Y-70570000D01*
X113390000Y-139210000D02*
X116050000Y-139210000D01*
X114720000Y-67970000D02*
X116050000Y-67970000D01*
X116050000Y-67970000D02*
X116050000Y-69300000D01*
X116050000Y-70570000D02*
X116050000Y-139210000D01*
%TO.C,R1*%
X90484564Y-85840000D02*
X90030436Y-85840000D01*
X90484564Y-87310000D02*
X90030436Y-87310000D01*
%TO.C,J5*%
X99890000Y-126450000D02*
X99890000Y-139210000D01*
X99890000Y-126450000D02*
X102550000Y-126450000D01*
X99890000Y-139210000D02*
X102550000Y-139210000D01*
X101220000Y-123850000D02*
X102550000Y-123850000D01*
X102550000Y-123850000D02*
X102550000Y-125180000D01*
X102550000Y-126450000D02*
X102550000Y-139210000D01*
%TO.C,SW1*%
X70370000Y-75725000D02*
X70370000Y-74342000D01*
X70370000Y-75725000D02*
X71753000Y-75725000D01*
X70610000Y-68665000D02*
X71920000Y-68665000D01*
X70610000Y-75485000D02*
X70610000Y-68665000D01*
X70610000Y-75485000D02*
X71920000Y-75485000D01*
X72085000Y-72678333D02*
X73355000Y-72678333D01*
X73520000Y-68665000D02*
X74830000Y-68665000D01*
X73520000Y-75485000D02*
X74830000Y-75485000D01*
X74830000Y-75485000D02*
X74830000Y-68665000D01*
X72085000Y-73885000D02*
X73355000Y-73885000D01*
X73355000Y-70265000D01*
X72085000Y-70265000D01*
X72085000Y-73885000D01*
X72085000Y-73885000D02*
X73355000Y-73885000D01*
X73355000Y-72678333D01*
X72085000Y-72678333D01*
X72085000Y-73885000D01*
G36*
X72085000Y-73885000D02*
G01*
X73355000Y-73885000D01*
X73355000Y-72678333D01*
X72085000Y-72678333D01*
X72085000Y-73885000D01*
G37*
%TO.C,D1*%
X69220000Y-82325000D02*
X69220000Y-87825000D01*
X69220000Y-82325000D02*
X76220000Y-82325000D01*
X69220000Y-87825000D02*
X75770000Y-87825000D01*
X70020000Y-85975000D02*
X70020000Y-84175000D01*
X75420000Y-85975000D02*
X75420000Y-84175000D01*
X75770000Y-87825000D02*
X76220000Y-87375000D01*
X76220000Y-87375000D02*
X76220000Y-82325000D01*
%TO.C,J6*%
X99890000Y-88765000D02*
X99890000Y-109145000D01*
X99890000Y-88765000D02*
X102550000Y-88765000D01*
X99890000Y-109145000D02*
X102550000Y-109145000D01*
X101220000Y-86165000D02*
X102550000Y-86165000D01*
X102550000Y-86165000D02*
X102550000Y-87495000D01*
X102550000Y-88765000D02*
X102550000Y-109145000D01*
%TO.C,R4*%
X111022500Y-56302064D02*
X111022500Y-55847936D01*
X112492500Y-56302064D02*
X112492500Y-55847936D01*
%TO.C,J4*%
X131170000Y-154390000D02*
X131170000Y-162070000D01*
X131170000Y-154390000D02*
X133830000Y-154390000D01*
X131170000Y-162070000D02*
X133830000Y-162070000D01*
X132500000Y-151790000D02*
X133830000Y-151790000D01*
X133830000Y-151790000D02*
X133830000Y-153120000D01*
X133830000Y-154390000D02*
X133830000Y-162070000D01*
%TD*%
M02*
