%TF.GenerationSoftware,KiCad,Pcbnew,9.0.6*%
%TF.CreationDate,2025-11-19T01:17:59-05:00*%
%TF.ProjectId,pcb,7063622e-6b69-4636-9164-5f7063625858,rev?*%
%TF.SameCoordinates,Original*%
%TF.FileFunction,Paste,Top*%
%TF.FilePolarity,Positive*%
%FSLAX46Y46*%
G04 Gerber Fmt 4.6, Leading zero omitted, Abs format (unit mm)*
G04 Created by KiCad (PCBNEW 9.0.6) date 2025-11-19 01:17:59*
%MOMM*%
%LPD*%
G01*
G04 APERTURE LIST*
G04 Aperture macros list*
%AMRoundRect*
0 Rectangle with rounded corners*
0 $1 Rounding radius*
0 $2 $3 $4 $5 $6 $7 $8 $9 X,Y pos of 4 corners*
0 Add a 4 corners polygon primitive as box body*
4,1,4,$2,$3,$4,$5,$6,$7,$8,$9,$2,$3,0*
0 Add four circle primitives for the rounded corners*
1,1,$1+$1,$2,$3*
1,1,$1+$1,$4,$5*
1,1,$1+$1,$6,$7*
1,1,$1+$1,$8,$9*
0 Add four rect primitives between the rounded corners*
20,1,$1+$1,$2,$3,$4,$5,0*
20,1,$1+$1,$4,$5,$6,$7,0*
20,1,$1+$1,$6,$7,$8,$9,0*
20,1,$1+$1,$8,$9,$2,$3,0*%
G04 Aperture macros list end*
%ADD10RoundRect,0.250000X-0.337500X-0.475000X0.337500X-0.475000X0.337500X0.475000X-0.337500X0.475000X0*%
%ADD11RoundRect,0.087500X-0.150000X-0.087500X0.150000X-0.087500X0.150000X0.087500X-0.150000X0.087500X0*%
%ADD12RoundRect,0.050000X-0.262500X-0.050000X0.262500X-0.050000X0.262500X0.050000X-0.262500X0.050000X0*%
%ADD13RoundRect,0.062500X-0.162500X-0.062500X0.162500X-0.062500X0.162500X0.062500X-0.162500X0.062500X0*%
%ADD14RoundRect,0.250000X-0.450000X0.350000X-0.450000X-0.350000X0.450000X-0.350000X0.450000X0.350000X0*%
%ADD15RoundRect,0.090000X0.660000X0.360000X-0.660000X0.360000X-0.660000X-0.360000X0.660000X-0.360000X0*%
%ADD16RoundRect,0.250000X0.275000X0.350000X-0.275000X0.350000X-0.275000X-0.350000X0.275000X-0.350000X0*%
%ADD17RoundRect,0.090000X-0.660000X-0.360000X0.660000X-0.360000X0.660000X0.360000X-0.660000X0.360000X0*%
%ADD18RoundRect,0.250000X0.450000X-0.350000X0.450000X0.350000X-0.450000X0.350000X-0.450000X-0.350000X0*%
%ADD19RoundRect,0.250000X0.350000X0.450000X-0.350000X0.450000X-0.350000X-0.450000X0.350000X-0.450000X0*%
%ADD20RoundRect,0.250000X0.310000X-0.830000X0.310000X0.830000X-0.310000X0.830000X-0.310000X-0.830000X0*%
G04 APERTURE END LIST*
D10*
%TO.C,C4*%
X89182500Y-116575000D03*
X91257500Y-116575000D03*
%TD*%
%TO.C,C2*%
X89182500Y-98075000D03*
X91257500Y-98075000D03*
%TD*%
D11*
%TO.C,U1*%
X100082500Y-58075000D03*
X100082500Y-59175000D03*
D12*
X100158000Y-58625000D03*
D11*
X100757500Y-58075000D03*
X100757500Y-59175000D03*
D12*
X100983500Y-58625000D03*
D13*
X102020500Y-59375000D03*
X102020500Y-58875000D03*
X102020500Y-58375000D03*
X102020500Y-57875000D03*
%TD*%
D14*
%TO.C,R3*%
X111757500Y-61075000D03*
X111757500Y-63075000D03*
%TD*%
D15*
%TO.C,D4*%
X75170000Y-124225000D03*
X75170000Y-120925000D03*
X70270000Y-120925000D03*
X70270000Y-124225000D03*
%TD*%
D10*
%TO.C,C8*%
X118182500Y-62575000D03*
X120257500Y-62575000D03*
%TD*%
%TO.C,C7*%
X118145000Y-51575000D03*
X120220000Y-51575000D03*
%TD*%
D16*
%TO.C,L1*%
X102257500Y-47575000D03*
X99957500Y-47575000D03*
%TD*%
D10*
%TO.C,C1*%
X100182500Y-65575000D03*
X102257500Y-65575000D03*
%TD*%
D17*
%TO.C,D3*%
X70270000Y-108425000D03*
X70270000Y-111725000D03*
X75170000Y-111725000D03*
X75170000Y-108425000D03*
%TD*%
D10*
%TO.C,C6*%
X118182500Y-59075000D03*
X120257500Y-59075000D03*
%TD*%
D18*
%TO.C,R2*%
X108220000Y-57075000D03*
X108220000Y-55075000D03*
%TD*%
D17*
%TO.C,D2*%
X70270000Y-95925000D03*
X70270000Y-99225000D03*
X75170000Y-99225000D03*
X75170000Y-95925000D03*
%TD*%
D10*
%TO.C,C3*%
X89182500Y-104075000D03*
X91257500Y-104075000D03*
%TD*%
D18*
%TO.C,R5*%
X108220000Y-63075000D03*
X108220000Y-61075000D03*
%TD*%
D10*
%TO.C,C5*%
X118182500Y-55575000D03*
X120257500Y-55575000D03*
%TD*%
D19*
%TO.C,R1*%
X91257500Y-86575000D03*
X89257500Y-86575000D03*
%TD*%
D20*
%TO.C,SW1*%
X72720000Y-75440000D03*
X72720000Y-68710000D03*
%TD*%
D17*
%TO.C,D1*%
X70270000Y-83425000D03*
X70270000Y-86725000D03*
X75170000Y-86725000D03*
X75170000Y-83425000D03*
%TD*%
D18*
%TO.C,R4*%
X111757500Y-57075000D03*
X111757500Y-55075000D03*
%TD*%
M02*
