%TF.GenerationSoftware,KiCad,Pcbnew,9.0.6*%
%TF.CreationDate,2025-11-19T01:17:59-05:00*%
%TF.ProjectId,pcb,7063622e-6b69-4636-9164-5f7063625858,rev?*%
%TF.SameCoordinates,Original*%
%TF.FileFunction,Soldermask,Bot*%
%TF.FilePolarity,Negative*%
%FSLAX46Y46*%
G04 Gerber Fmt 4.6, Leading zero omitted, Abs format (unit mm)*
G04 Created by KiCad (PCBNEW 9.0.6) date 2025-11-19 01:17:59*
%MOMM*%
%LPD*%
G01*
G04 APERTURE LIST*
%ADD10R,1.700000X1.700000*%
%ADD11C,1.700000*%
G04 APERTURE END LIST*
D10*
%TO.C,J7*%
X132500000Y-61115000D03*
D11*
X132500000Y-58575000D03*
X132500000Y-56035000D03*
X132500000Y-53495000D03*
%TD*%
D10*
%TO.C,J2*%
X132500000Y-69300000D03*
D11*
X132500000Y-71840000D03*
X132500000Y-74380000D03*
X132500000Y-76920000D03*
X132500000Y-79460000D03*
X132500000Y-82000000D03*
X132500000Y-84540000D03*
X132500000Y-87080000D03*
X132500000Y-89620000D03*
X132500000Y-92160000D03*
X132500000Y-94700000D03*
X132500000Y-97240000D03*
X132500000Y-99780000D03*
X132500000Y-102320000D03*
X132500000Y-104860000D03*
X132500000Y-107400000D03*
X132500000Y-109940000D03*
X132500000Y-112480000D03*
X132500000Y-115020000D03*
X132500000Y-117560000D03*
X132500000Y-120100000D03*
X132500000Y-122640000D03*
X132500000Y-125180000D03*
X132500000Y-127720000D03*
X132500000Y-130260000D03*
X132500000Y-132800000D03*
X132500000Y-135340000D03*
X132500000Y-137880000D03*
%TD*%
D10*
%TO.C,J3*%
X114720000Y-155660000D03*
D11*
X114720000Y-158200000D03*
X114720000Y-160740000D03*
%TD*%
D10*
%TO.C,J1*%
X114720000Y-69300000D03*
D11*
X114720000Y-71840000D03*
X114720000Y-74380000D03*
X114720000Y-76920000D03*
X114720000Y-79460000D03*
X114720000Y-82000000D03*
X114720000Y-84540000D03*
X114720000Y-87080000D03*
X114720000Y-89620000D03*
X114720000Y-92160000D03*
X114720000Y-94700000D03*
X114720000Y-97240000D03*
X114720000Y-99780000D03*
X114720000Y-102320000D03*
X114720000Y-104860000D03*
X114720000Y-107400000D03*
X114720000Y-109940000D03*
X114720000Y-112480000D03*
X114720000Y-115020000D03*
X114720000Y-117560000D03*
X114720000Y-120100000D03*
X114720000Y-122640000D03*
X114720000Y-125180000D03*
X114720000Y-127720000D03*
X114720000Y-130260000D03*
X114720000Y-132800000D03*
X114720000Y-135340000D03*
X114720000Y-137880000D03*
%TD*%
D10*
%TO.C,J5*%
X101220000Y-125180000D03*
D11*
X101220000Y-127720000D03*
X101220000Y-130260000D03*
X101220000Y-132800000D03*
X101220000Y-135340000D03*
X101220000Y-137880000D03*
%TD*%
D10*
%TO.C,J6*%
X101220000Y-87495000D03*
D11*
X101220000Y-90035000D03*
X101220000Y-92575000D03*
X101220000Y-95115000D03*
X101220000Y-97655000D03*
X101220000Y-100195000D03*
X101220000Y-102735000D03*
X101220000Y-105275000D03*
X101220000Y-107815000D03*
%TD*%
D10*
%TO.C,J4*%
X132500000Y-153120000D03*
D11*
X132500000Y-155660000D03*
X132500000Y-158200000D03*
X132500000Y-160740000D03*
%TD*%
M02*
